SplineFontDB: 1.0
FontName: VKern
FullName: VKern
FamilyName: VKern
Weight: Medium
Copyright: Created by George Williams with PfaEdit 1.0 (http://pfaedit.sf.net)
Comments: 2003-8-3: Created.
Version: 001.000
ItalicAngle: 0
UnderlinePosition: -100
UnderlineWidth: 50
Ascent: 800
Descent: 200
VerticalOrigin: 800
NeedsXUIDChange: 1
ScriptLang: 1
 1 latn 1 dflt 
KernClass: 4 4 0 0
 1 A
 1 O
 0 
 3 V W
 1 T
 0 
 0 0 0 0 0 -200 -146 0 0 -123 0 0 0 0 0 0
VKernClass: 3 3 0 0
 6 A.vert
 6 O.vert
 13 V.vert W.vert
 6 T.vert
 0 0 0 0 -200 -146 0 -123 0
Encoding: custom
DisplaySize: -24
AntiAlias: 1
FitToEm: 1
WinInfo: 64 16 4
BeginChars: 256 52
StartChar: A
Encoding: 65 65 0
Width: 732
Flags: HW
HStem: 0 25<38 74 213 257 483 525 661 683> 320 22<270 443>
VStem: 37 221<1 25> 482 202<1 25>
DStem: 339 647 382 686 353 609 604 65 353 609 365 575 137 83 269 342 353 609 261 320 137 83 173 105 451 320 382 686 543 55 604 65
Fore
684 0 m 1
 482 0 l 1
 482 25 l 1
 523 25 l 6
 538 25 548 41 543 55 c 6
 451 320 l 1
 261 320 l 1
 173 105 l 6
 160 73 182 25 220 25 c 6
 258 25 l 1
 258 0 l 1
 37 0 l 1
 37 25 l 1
 72 25 l 2
 100 25 127 59 137 83 c 2
 353 609 l 1
 339 647 l 1
 382 686 l 1
 604 65 l 2
 612 42 644 25 667 25 c 2
 684 25 l 1
 684 0 l 1
444 342 m 1
 365 575 l 1
 269 342 l 1
 444 342 l 1
EndSplineSet
KernsSLIF: 85 -92 0 0 86 -246 0 0
Substitution: 0 0 'vrt2' A.vert
EndChar
StartChar: B
Encoding: 66 66 1
Width: 553
Flags: HW
HStem: 0 24<23 77> 0 30<198 283> 361 27<166 283> 631 30<198 317> 637 24<23 77>
VStem: 110 55<65.9787 360 389 592> 412 48<528 544> 432 52<205 222>
Fore
484 220 m 0
 484 104 397 0 281 0 c 2
 22 0 l 1
 22 24 l 1
 75 24 l 2
 93 24 110 44 110 61 c 2
 110 600 l 2
 110 617 93 637 75 637 c 2
 22 637 l 1
 22 661 l 1
 315 661 l 2
 402 661 460 630 460 535 c 4
 460 462 427 412 376 382 c 1
 446 357 484 300 484 220 c 0
412 535 m 0
 412 593 366 631 310 631 c 2
 202 631 l 2
 176 631 165 603 165 581 c 2
 165 388 l 1
 277 388 l 2
 355 388 412 456 412 535 c 0
432 206 m 0
 432 279 381 361 309 361 c 2
 165 361 l 1
 165 80 l 2
 165 56 173 30 202 30 c 2
 274 30 l 2
 367 30 432 135 432 206 c 0
EndSplineSet
PairPos: 0 0 'dist' C dx=0 dy=10 dh=0 dv=0 | dx=0 dy=-20 dh=0 dv=0
Substitution: 0 0 'vrt2' B.vert
EndChar
StartChar: C
Encoding: 67 67 2
Width: 601
Flags: HW
HStem: -2 19<282 306> 446 219<520 523> 665 14<298 317>
VStem: 42 64<302 350>
Fore
558 228 m 1
 515 9 l 1
 495 9 l 1
 495 30 482 46 463 46 c 0
 410 46 365 -2 304 -2 c 0
 80 -2 42 184 42 323 c 0
 42 464 106 679 315 679 c 0
 417 679 434 621 463 621 c 0
 485 621 504 644 511 665 c 1
 523 665 l 1
 534 446 l 1
 520 446 l 1
 495 540 422 665 312 665 c 0
 187 665 106 500 106 336 c 4
 106 192 156 17 291 17 c 4
 363 17 453 65 504 143 c 0
 524 174 534 193 544 228 c 1
 558 228 l 1
EndSplineSet
Substitution: 0 0 'vrt2' C.vert
EndChar
StartChar: D
Encoding: 68 68 3
Width: 650
Flags: HW
HStem: 0 24<24 78> 0 30<199 299> 631 30<199 346> 637 24<24 78>
VStem: 111 55<69.0038 583> 558 61<336 368>
Fore
619 347 m 0
 619 172 475 0 279 0 c 2
 23 0 l 1
 23 24 l 1
 76 24 l 2
 94 24 111 44 111 61 c 2
 111 600 l 2
 111 617 94 637 76 637 c 2
 23 637 l 1
 23 661 l 1
 379 661 l 2
 559 661 619 486 619 347 c 0
346 631 m 1
 203 631 l 2
 178 631 166 602 166 581 c 2
 166 80 l 2
 166 59 178 30 203 30 c 2
 297 30 l 2
 455 30 558 180 558 343 c 16
 558 488 485 625 346 631 c 1
EndSplineSet
Substitution: 0 0 'vrt2' D.vert
EndChar
StartChar: E
Encoding: 69 69 4
Width: 584
Flags: HW
HStem: 0 24<23 77> 0 30<198 342> 352 24<166 267> 631 30<198 342> 637 24<23 77>
VStem: 110 55<68.3537 351 377 592> 364 18<235 256 460 487>
Fore
530 196 m 1
 478 0 l 1
 22 0 l 1
 22 24 l 1
 75 24 l 2
 93 24 110 44 110 61 c 2
 110 600 l 2
 110 617 93 637 75 637 c 2
 22 637 l 1
 22 661 l 1
 486 661 l 1
 530 461 l 1
 510 461 l 1
 497 491 l 2
 463 569 423 631 331 631 c 2
 203 631 l 2
 177 631 165 604 165 581 c 2
 165 376 l 1
 265 376 l 2
 313 376 364 421 364 470 c 2
 364 488 l 1
 382 488 l 1
 382 234 l 1
 364 234 l 1
 364 252 l 2
 364 303 316 352 265 352 c 2
 165 352 l 1
 165 80 l 2
 165 57 177 30 203 30 c 2
 331 30 l 2
 418 30 465 89 497 165 c 2
 510 196 l 1
 530 196 l 1
EndSplineSet
Substitution: 0 0 'vrt2' E.vert
EndChar
StartChar: F
Encoding: 70 70 5
Width: 556
Flags: HW
HStem: 0 24<25 79 200 254> 348 25<168 266> 470 21G<476 491> 627 34<200 344> 637 24<25 79>
VStem: 113 54<60 347 374 578> 363 18<235 256 464 487>
Fore
491 470 m 1
 476 470 l 1
 469 502 l 2
 453 576 406 627 330 627 c 2
 205 627 l 2
 179 627 167 598 167 576 c 2
 167 373 l 1
 264 373 l 2
 313 373 363 420 363 470 c 2
 363 488 l 1
 381 488 l 1
 381 234 l 1
 363 234 l 1
 363 252 l 2
 363 301 315 348 264 348 c 2
 167 348 l 1
 167 61 l 2
 167 43 184 24 202 24 c 2
 255 24 l 1
 255 0 l 1
 24 0 l 1
 24 24 l 1
 77 24 l 2
 95 24 113 43 113 61 c 2
 113 600 l 2
 113 618 95 637 77 637 c 2
 24 637 l 1
 24 661 l 1
 470 661 l 1
 491 470 l 1
EndSplineSet
Substitution: 0 0 'vrt2' F.vert
EndChar
StartChar: G
Encoding: 71 71 6
Width: 610
Flags: HW
HStem: -6 19<303 327> 339 18<398 430 539 590> 645 19<279 306>
VStem: 39 57<314 346> 397 194<339 356> 461 55<91 298>
Fore
591 339 m 1
 546 339 l 2
 523 339 516 313 516 295 c 2
 516 68 l 1
 491 82 l 1
 444 24 378 -6 304 -6 c 4
 136 -6 39 165 39 332 c 0
 39 500 146 664 296 664 c 0
 368 664 408 645 459 598 c 1
 502 658 l 1
 525 658 l 1
 538 440 l 1
 524 440 l 1
 496 542 408 645 291 645 c 0
 167 645 96 458 96 324 c 0
 96 180 170 13 320 13 c 0
 380 13 428 42 461 91 c 1
 461 295 l 2
 461 316 454 339 428 339 c 2
 397 339 l 1
 397 357 l 1
 591 357 l 1
 591 339 l 1
EndSplineSet
Substitution: 0 0 'vrt2' G.vert
EndChar
StartChar: H
Encoding: 72 72 7
Width: 695
Flags: HW
HStem: 0 24<46 100 221 274 418 477 589 647> 336 21<189 504> 637 24<46 100 221 274 418 477 589 647>
VStem: 133 55<60 335 358 602> 505 55<60 335 358 602>
Fore
648 0 m 1
 417 0 l 1
 417 24 l 1
 470 24 l 2
 488 24 505 44 505 61 c 2
 505 336 l 1
 188 336 l 1
 188 61 l 2
 188 42 204 24 223 24 c 2
 275 24 l 1
 275 0 l 1
 45 0 l 1
 45 24 l 1
 98 24 l 2
 116 24 133 44 133 61 c 2
 133 600 l 2
 133 617 116 637 98 637 c 2
 45 637 l 1
 45 661 l 1
 275 661 l 1
 275 637 l 1
 223 637 l 2
 204 637 188 619 188 600 c 2
 188 357 l 1
 505 357 l 1
 505 600 l 2
 505 617 488 637 470 637 c 2
 417 637 l 1
 417 661 l 1
 648 661 l 1
 648 637 l 1
 595 637 l 2
 576 637 560 619 560 600 c 2
 560 61 l 2
 560 42 576 24 595 24 c 2
 648 24 l 1
 648 0 l 1
EndSplineSet
Substitution: 0 0 'vrt2' H.vert
EndChar
StartChar: I
Encoding: 73 73 8
Width: 297
Flags: HW
HStem: 0 24<46 100 221 274> 637 24<46 100 221 274>
VStem: 133 55<60 602>
Fore
275 0 m 1
 45 0 l 1
 45 24 l 1
 98 24 l 2
 116 24 133 44 133 61 c 2
 133 600 l 2
 133 617 116 637 98 637 c 2
 45 637 l 1
 45 661 l 1
 275 661 l 1
 275 637 l 1
 223 637 l 2
 204 637 188 619 188 600 c 2
 188 61 l 2
 188 42 204 24 223 24 c 2
 275 24 l 1
 275 0 l 1
EndSplineSet
Substitution: 0 0 'vrt2' I.vert
EndChar
StartChar: J
Encoding: 74 74 9
Width: 327
Flags: HW
HStem: -106 17<91 109> 637 24<93 147 269 322>
VStem: 13 86<-42 -28> 180 55<102 602>
Fore
323 637 m 1
 270 637 l 2
 251 637 235 619 235 600 c 2
 235 133 l 2
 235 39 212 -106 94 -106 c 0
 46 -106 13 -84 13 -36 c 0
 13 -12 31 13 56 13 c 0
 83 13 99 -12 99 -30 c 0
 99 -59 86 -74 63 -80 c 1
 70 -86 88 -89 105 -89 c 0
 150 -89 180 11 180 71 c 2
 180 600 l 2
 180 617 163 637 145 637 c 2
 92 637 l 1
 92 661 l 1
 323 661 l 1
 323 637 l 1
EndSplineSet
Substitution: 0 0 'vrt2' J.vert
EndChar
StartChar: K
Encoding: 75 75 10
Width: 662
Flags: HW
HStem: 0 24<40 93 215 268 425 461 581 618> 637 24<40 93 215 268 355 380>
VStem: 127 55<60 280 309 603> 354 242<636 660> 424 195<1 25>
DStem: 262 360 303 402 460 65 530 63
Fore
619 0 m 1
 424 0 l 1
 424 25 l 1
 454 25 l 6
 479 25 468 52 460 65 c 5
 262 360 l 1
 182 280 l 1
 182 61 l 2
 182 43 197 24 216 24 c 2
 269 24 l 1
 269 0 l 1
 39 0 l 1
 39 24 l 1
 91 24 l 2
 110 24 127 43 127 61 c 2
 127 600 l 2
 127 618 110 637 91 637 c 2
 39 637 l 1
 39 661 l 1
 269 661 l 1
 269 637 l 1
 216 637 l 2
 197 637 182 618 182 600 c 2
 182 308 l 1
 378 514 l 6
 410 548 466 636 373 636 c 6
 354 636 l 1
 354 661 l 1
 596 661 l 1
 596 636 l 1
 476 610 383 489 303 402 c 1
 530 63 l 2
 538 51 566 25 582 25 c 2
 619 25 l 1
 619 0 l 1
EndSplineSet
Substitution: 0 0 'vrt2' K.vert
EndChar
StartChar: L
Encoding: 76 76 11
Width: 567
Flags: HW
HStem: 0 24<29 83 204 332> 637 24<29 83 204 258>
VStem: 117 55<64 602>
Fore
533 179 m 1
 483 0 l 1
 28 0 l 1
 28 24 l 1
 81 24 l 2
 109 24 117 53 117 76 c 2
 117 600 l 2
 117 618 99 637 81 637 c 2
 28 637 l 1
 28 661 l 1
 259 661 l 1
 259 637 l 1
 206 637 l 2
 187 637 172 618 172 600 c 2
 172 73 l 2
 172 50 184 23 210 23 c 2
 330 23 l 2
 416 23 495 99 518 179 c 1
 533 179 l 1
EndSplineSet
Substitution: 0 0 'vrt2' L.vert
EndChar
StartChar: M
Encoding: 77 77 12
Width: 867
Flags: HW
HStem: 0 25<46 96 237 279 584 638 760 813> 637 24<71 125 760 813>
VStem: 158 20<112 593> 672 55<60 606>
DStem: 178 594 215 661 412 0 451 62 680 661 672 607 451 62 441 0
Fore
814 0 m 1
 583 0 l 1
 583 24 l 1
 636 24 l 2
 654 24 672 43 672 61 c 2
 672 607 l 1
 441 0 l 1
 412 0 l 1
 178 594 l 1
 178 117 l 2
 178 81 199 25 243 25 c 2
 280 25 l 1
 280 0 l 1
 45 0 l 1
 45 25 l 1
 94 25 l 2
 137 25 158 82 158 117 c 2
 158 600 l 2
 158 617 141 637 123 637 c 2
 70 637 l 1
 70 661 l 1
 215 661 l 1
 451 62 l 1
 680 661 l 1
 814 661 l 1
 814 637 l 1
 761 637 l 2
 742 637 727 618 727 600 c 2
 727 61 l 2
 727 43 742 24 761 24 c 2
 814 24 l 1
 814 0 l 1
EndSplineSet
Substitution: 0 0 'vrt2' M.vert
EndChar
StartChar: N
Encoding: 78 78 13
Width: 730
Flags: HW
HStem: 0 25<44 94 235 278> 637 24<70 123 479 523 654.781 712>
VStem: 157 19<112 597> 580 20<81 546>
DStem: 176 598 197 661 564 0 580 80
Fore
713 636 m 1
 665 636 l 2
 620 636 600 581 600 544 c 2
 600 0 l 1
 564 0 l 1
 176 598 l 1
 176 117 l 2
 176 82 198 25 241 25 c 2
 279 25 l 1
 279 0 l 1
 43 0 l 1
 43 25 l 1
 92 25 l 2
 135 25 157 82 157 117 c 2
 157 600 l 2
 157 618 139 637 121 637 c 2
 69 637 l 1
 69 661 l 1
 197 661 l 1
 580 80 l 1
 580 544 l 2
 580 581 562 636 516 636 c 2
 478 636 l 1
 478 661 l 1
 713 661 l 1
 713 636 l 1
EndSplineSet
Substitution: 0 0 'vrt2' N.vert
EndChar
StartChar: O
Encoding: 79 79 14
Width: 710
Flags: HW
HStem: -21 21<345 377> 650 21<345 377>
VStem: 57 63<315 347> 597 63<315 347>
Fore
359 -21 m 0
 156 -21 57 162 57 329 c 0
 57 501 159 671 358 671 c 0
 558 671 660 502 660 331 c 0
 660 156 564 -21 359 -21 c 0
358 0 m 0
 518 -0 597 164 597 327 c 0
 597 484 518 650 359 650 c 0
 200 650 120 488 120 325 c 0
 120 163 199 0 358 0 c 0
EndSplineSet
Substitution: 0 0 'vrt2' O.vert
EndChar
StartChar: P
Encoding: 80 80 15
Width: 491
Flags: HW
HStem: 0 24<31 85 206 259> 367 18<174 286> 638 23<174 286> 644 17<31 85>
VStem: 118 55<60 367 386 608> 393 51<512 529>
Fore
444 524 m 8
 444 434 370 367 281 367 c 2
 173 367 l 1
 173 61 l 2
 173 42 189 24 208 24 c 2
 260 24 l 1
 260 0 l 1
 30 0 l 1
 30 24 l 1
 83 24 l 2
 101 24 118 44 118 61 c 2
 118 606 l 2
 118 624 102 644 83 644 c 2
 30 644 l 1
 30 661 l 1
 296 661 l 2
 375 661 444 600 444 524 c 8
273 638 m 2
 173 638 l 1
 173 385 l 1
 272 385 l 2
 352 385 393 453 393 527 c 16
 393 590 337 638 273 638 c 2
EndSplineSet
Substitution: 0 0 'vrt2' P.vert
EndChar
StartChar: Q
Encoding: 81 81 16
Width: 710
Flags: HW
HStem: -92 65<460 487> 645 21<340 367>
VStem: 52 63<298 346> 161 84<-63 -54> 560 8<18 26> 586 68<298 346>
Fore
568 27 m 1
 568 -37 527 -92 460 -92 c 0
 374 -92 308 -8 244 -8 c 0
 221 -8 200 -16 192 -35 c 1
 238 18 282 -102 198 -102 c 0
 177 -102 161 -80 161 -61 c 0
 161 -26 188 -4 220 6 c 1
 108 58 52 190 52 323 c 0
 52 494 150 666 349 666 c 0
 553 666 654 492 654 317 c 0
 654 164 572 14 412 -15 c 1
 435 -22 459 -27 487 -27 c 0
 518 -27 560 -8 560 27 c 1
 568 27 l 1
365 2 m 1
 511 12 586 164 586 318 c 0
 586 480 508 645 349 645 c 0
 191 645 115 480 115 319 c 0
 115 190 167 62 268 17 c 1
 299 23 336 11 365 2 c 1
EndSplineSet
Substitution: 0 0 'vrt2' Q.vert
EndChar
StartChar: R
Encoding: 82 82 17
Width: 627
Flags: HW
HStem: 0 16<586 600> 0 24<27 81 202 255> 367 25<170 276> 631 30<170 298> 637 24<27 81>
VStem: 114 55<56 366 393 601> 405 62<512 529>
DStem: 276 367 334 369 452 57 507 72
Fore
601 0 m 1
 537 0 l 2
 494 0 472 22 452 57 c 2
 276 367 l 1
 169 367 l 1
 169 61 l 2
 169 42 185 24 204 24 c 2
 256 24 l 1
 256 0 l 1
 26 0 l 1
 26 24 l 1
 79 24 l 2
 97 24 114 44 114 61 c 2
 114 599 l 2
 114 617 98 637 79 637 c 2
 26 637 l 1
 26 661 l 1
 319 661 l 2
 399 661 467 606 467 522 c 8
 467 441 408 378 334 369 c 1
 507 72 l 2
 519 52 561 16 588 16 c 2
 601 16 l 1
 601 0 l 1
284 631 m 2
 169 631 l 1
 169 392 l 1
 283 392 l 2
 363 392 405 455 405 528 c 16
 405 592 348 631 284 631 c 2
EndSplineSet
Substitution: 0 0 'vrt2' R.vert
EndChar
StartChar: S
Encoding: 83 83 18
Width: 502
Flags: HW
HStem: -10 22<243.498 275> -2 217<61 64> 650 20G<421 432> 657 17<227 243>
VStem: 35 59<490 525> 415 51<131 174>
Fore
466 174 m 0
 466 97 409 -10 263 -10 c 0
 181 -10 160 40 120 40 c 0
 105 40 79 7 72 -2 c 1
 61 -2 l 1
 50 215 l 1
 64 215 l 1
 89 123 154 12 261 12 c 0
 333 12 415 51 415 131 c 0
 415 360 35 289 35 490 c 0
 35 592 126 674 231 674 c 0
 339 674 328 627 373 627 c 0
 387 627 413 658 421 670 c 1
 432 670 l 1
 444 452 l 1
 430 452 l 1
 406 544 340 657 233 657 c 0
 161 657 94 598 94 525 c 0
 94 342 466 382 466 174 c 0
EndSplineSet
Substitution: 0 0 'vrt2' S.vert
EndChar
StartChar: T
Encoding: 84 84 19
Width: 741
Flags: HW
HStem: 0 24<252 306 428 481> 630 31<239 306 428 527>
VStem: 339 55<60 582>
Fore
710 490 m 1
 690 489 l 1
 669 571 592 630 511 630 c 2
 431 630 l 2
 406 630 394 601 394 580 c 2
 394 61 l 2
 394 42 410 24 429 24 c 2
 482 24 l 1
 482 0 l 1
 251 0 l 1
 251 24 l 1
 304 24 l 2
 322 24 339 44 339 61 c 2
 339 580 l 2
 339 603 328 630 302 630 c 2
 261 630 l 2
 171 630 88 585 69 489 c 1
 47 490 l 1
 105 661 l 1
 653 661 l 1
 710 490 l 1
EndSplineSet
Substitution: 0 0 'vrt2' T.vert
EndChar
StartChar: U
Encoding: 85 85 20
Width: 656
Flags: HW
HStem: -12 19<344 364> 637 24<41 95 216 270 439 492 584 637>
VStem: 128 55<164 602> 526 24<208 602>
Fore
638 637 m 1
 585 637 l 2
 566 637 550 619 550 600 c 2
 550 220 l 2
 550 104 478 -12 362 -12 c 0
 216 -12 128 20 128 181 c 2
 128 600 l 2
 128 617 111 637 93 637 c 2
 40 637 l 1
 40 661 l 1
 271 661 l 1
 271 637 l 1
 218 637 l 2
 199 637 183 619 183 600 c 2
 183 132 l 2
 183 54 276 7 359 7 c 0
 457 7 526 107 526 209 c 2
 526 600 l 2
 526 618 509 637 490 637 c 2
 438 637 l 1
 438 661 l 1
 638 661 l 1
 638 637 l 1
EndSplineSet
Substitution: 0 0 'vrt2' U.vert
EndChar
StartChar: V
Encoding: 86 86 21
Width: 704
Flags: HW
HStem: 0 21G<321 345> 636 25<42 57 182 227 448 474 649 665>
VStem: 41 187<636 660> 447 219<636 660>
DStem: 109 589 167 587 321 0 352 73 510 506 531 514 352 73 345 0
Fore
666 636 m 1
 654 636 l 2
 601 636 547 559 531 514 c 2
 345 0 l 1
 321 0 l 1
 109 589 l 2
 100 615 83 636 54 636 c 2
 41 636 l 1
 41 661 l 1
 228 661 l 1
 228 636 l 1
 183 636 l 6
 154 636 161 605 167 587 c 5
 352 73 l 1
 510 506 l 6
 531 563 561 636 472 636 c 6
 447 636 l 1
 447 661 l 1
 666 661 l 1
 666 636 l 1
EndSplineSet
Substitution: 0 0 'vrt2' V.vert
EndChar
StartChar: W
Encoding: 87 87 22
Width: 1022
Flags: HW
HStem: 0 21G<321 345 642 665> 636 25<42 57 185 231 362 377 505 548 768 794 957.224 988>
VStem: 41 191<636 660> 361 188<636 660> 767 222<636 660>
DStem: 109 589 171 587 321 0 353 79 430 589 488 587 482 445 675 82 482 445 490 419 353 79 345 0 830 506 855 519 675 82 665 0
Fore
989 636 m 1
 970 636 l 2
 909 636 874 570 855 519 c 2
 665 0 l 1
 642 0 l 1
 490 419 l 5
 345 0 l 1
 321 0 l 1
 109 589 l 2
 100 615 83 636 54 636 c 2
 41 636 l 1
 41 661 l 1
 232 661 l 1
 232 636 l 1
 187 636 l 2
 158 636 165 605 171 587 c 1
 353 79 l 1
 482 445 l 1
 430 589 l 2
 421 615 402 636 374 636 c 2
 361 636 l 1
 361 661 l 1
 549 661 l 1
 549 636 l 1
 511 636 l 2
 483 636 480 608 488 587 c 2
 675 82 l 1
 830 506 l 2
 844 545 857 636 792 636 c 2
 767 636 l 1
 767 661 l 1
 989 661 l 1
 989 636 l 1
EndSplineSet
Substitution: 0 0 'vrt2' W.vert
EndChar
StartChar: X
Encoding: 88 88 23
Width: 662
Flags: HW
HStem: 0 28<31 48 215 260 412 461 583 618> 636 25<75 103 208 260 401 430 585 618>
VStem: 30 231<1 28> 74 187<636 660> 411 208<1 28>
DStem: 155 591 209 587 311 334 339 378 311 334 326 309 191 136 229 151 416 507 460 528 339 378 353 354
Fore
619 636 m 1
 598 636 l 2
 538 636 488 574 460 528 c 2
 353 354 l 1
 354 354 528 72 528 72 c 2
 535 61 569 28 584 28 c 2
 619 28 l 1
 619 0 l 1
 411 0 l 1
 411 28 l 1
 456 28 l 6
 479 28 475 65 467 78 c 6
 326 309 l 1
 229 151 l 6
 217 132 159 28 224 28 c 6
 261 28 l 1
 261 0 l 1
 30 0 l 1
 30 28 l 1
 46 28 l 2
 106 28 163 89 191 136 c 2
 311 334 l 1
 155 591 l 2
 145 608 124 636 101 636 c 2
 74 636 l 1
 74 661 l 1
 261 661 l 1
 261 636 l 1
 216 636 l 6
 185 636 200 602 209 587 c 6
 339 378 l 1
 416 507 l 6
 427 526 491 636 425 636 c 6
 400 636 l 1
 400 661 l 1
 619 661 l 1
 619 636 l 1
EndSplineSet
Substitution: 0 0 'vrt2' X.vert
EndChar
StartChar: Y
Encoding: 89 89 24
Width: 653
Flags: HW
HStem: 0 24<184 240 360 413> 636 25<49 64 195.787 237 402 432 585 620>
VStem: 48 190<636 660> 272 55<60 334> 401 220<636 660>
DStem: 123 591 184 587 272 334 316 357 419 507 462 528 316 357 327 339
Fore
621 636 m 1
 586 636 l 2
 546 636 483 557 462 528 c 2
 327 339 l 1
 327 61 l 2
 327 43 342 24 361 24 c 2
 414 24 l 1
 414 0 l 1
 183 0 l 1
 183 24 l 1
 236 24 l 2
 254 24 272 43 272 61 c 2
 272 334 l 1
 123 591 l 2
 110 613 83 636 56 636 c 2
 48 636 l 1
 48 661 l 1
 238 661 l 1
 238 636 l 1
 209 636 l 6
 173 636 166 618 184 587 c 6
 316 357 l 1
 419 507 l 6
 436 532 505 636 427 636 c 6
 401 636 l 1
 401 661 l 1
 621 661 l 1
 621 636 l 1
EndSplineSet
Substitution: 0 0 'vrt2' Y.vert
EndChar
StartChar: Z
Encoding: 90 90 25
Width: 582
Flags: HW
HStem: 0 25<131 321> 469 21G<71 94> 636 25<273 447>
DStem: 448 636 521 639 49 21 130 25
Fore
538 206 m 1
 479 0 l 1
 49 0 l 1
 49 21 l 1
 448 636 l 1
 278 636 l 2
 214 636 125 579 107 515 c 2
 94 469 l 1
 71 469 l 1
 116 661 l 1
 521 661 l 1
 521 639 l 1
 130 25 l 1
 314 25 l 2
 388 25 466 91 497 157 c 2
 519 204 l 1
 538 206 l 1
EndSplineSet
Substitution: 0 0 'vrt2' Z.vert
EndChar
StartChar: A.vert
Encoding: 97 -1 26
Width: 1000
Flags: H
Fore
200 116 m 1
 200 318 l 1
 225 318 l 1
 225 277 l 6
 225 262 241 252 255 257 c 6
 520 349 l 1
 520 539 l 1
 305 627 l 6
 273 640 225 618 225 580 c 6
 225 542 l 1
 200 542 l 1
 200 763 l 1
 225 763 l 1
 225 728 l 2
 225 700 259 673 283 663 c 2
 809 447 l 1
 847 461 l 1
 886 418 l 1
 265 196 l 2
 242 188 225 156 225 133 c 2
 225 116 l 1
 200 116 l 1
542 356 m 1
 775 435 l 1
 542 531 l 1
 542 356 l 1
EndSplineSet
VKernsSLIF: 118 -246 0 0 117 -92 0 0
EndChar
StartChar: B.vert
Encoding: 98 -1 27
Width: 1000
Flags: H
Fore
420 316 m 0
 304 316 200 403 200 519 c 2
 200 778 l 1
 224 778 l 1
 224 725 l 2
 224 707 244 690 261 690 c 2
 800 690 l 2
 817 690 837 707 837 725 c 2
 837 778 l 1
 861 778 l 1
 861 485 l 2
 861 398 830 340 735 340 c 4
 662 340 612 373 582 424 c 1
 557 354 500 316 420 316 c 0
735 388 m 0
 793 388 831 434 831 490 c 2
 831 598 l 2
 831 624 803 635 781 635 c 2
 588 635 l 1
 588 523 l 2
 588 445 656 388 735 388 c 0
406 368 m 0
 479 368 561 419 561 491 c 2
 561 635 l 1
 280 635 l 2
 256 635 230 627 230 598 c 2
 230 526 l 2
 230 433 335 368 406 368 c 0
EndSplineSet
EndChar
StartChar: C.vert
Encoding: 99 -1 28
Width: 1000
Flags: H
Fore
428 242 m 1
 209 285 l 1
 209 305 l 1
 230 305 246 318 246 337 c 0
 246 390 198 435 198 496 c 0
 198 720 384 758 523 758 c 0
 664 758 879 694 879 485 c 0
 879 383 821 366 821 337 c 0
 821 315 844 296 865 289 c 1
 865 277 l 1
 646 266 l 1
 646 280 l 1
 740 305 865 378 865 488 c 0
 865 613 700 694 536 694 c 4
 392 694 217 644 217 509 c 4
 217 437 265 347 343 296 c 0
 374 276 393 266 428 256 c 1
 428 242 l 1
EndSplineSet
EndChar
StartChar: D.vert
Encoding: 100 -1 29
Width: 1000
Flags: H
Fore
547 181 m 0
 372 181 200 325 200 521 c 2
 200 777 l 1
 224 777 l 1
 224 724 l 2
 224 706 244 689 261 689 c 2
 800 689 l 2
 817 689 837 706 837 724 c 2
 837 777 l 1
 861 777 l 1
 861 421 l 2
 861 241 686 181 547 181 c 0
831 454 m 1
 831 597 l 2
 831 622 802 634 781 634 c 2
 280 634 l 2
 259 634 230 622 230 597 c 2
 230 503 l 2
 230 345 380 242 543 242 c 16
 688 242 825 315 831 454 c 1
EndSplineSet
EndChar
StartChar: E.vert
Encoding: 101 -1 30
Width: 1000
Flags: H
Fore
396 270 m 1
 200 322 l 1
 200 778 l 1
 224 778 l 1
 224 725 l 2
 224 707 244 690 261 690 c 2
 800 690 l 2
 817 690 837 707 837 725 c 2
 837 778 l 1
 861 778 l 1
 861 314 l 1
 661 270 l 1
 661 290 l 1
 691 303 l 2
 769 337 831 377 831 469 c 2
 831 597 l 2
 831 623 804 635 781 635 c 2
 576 635 l 1
 576 535 l 2
 576 487 621 436 670 436 c 2
 688 436 l 1
 688 418 l 1
 434 418 l 1
 434 436 l 1
 452 436 l 2
 503 436 552 484 552 535 c 2
 552 635 l 1
 280 635 l 2
 257 635 230 623 230 597 c 2
 230 469 l 2
 230 382 289 335 365 303 c 2
 396 290 l 1
 396 270 l 1
EndSplineSet
EndChar
StartChar: F.vert
Encoding: 102 -1 31
Width: 1000
Flags: H
Fore
670 309 m 1
 670 324 l 1
 702 331 l 2
 776 347 827 394 827 470 c 2
 827 595 l 2
 827 621 798 633 776 633 c 2
 573 633 l 1
 573 536 l 2
 573 487 620 437 670 437 c 2
 688 437 l 1
 688 419 l 1
 434 419 l 1
 434 437 l 1
 452 437 l 2
 501 437 548 485 548 536 c 2
 548 633 l 1
 261 633 l 2
 243 633 224 616 224 598 c 2
 224 545 l 1
 200 545 l 1
 200 776 l 1
 224 776 l 1
 224 723 l 2
 224 705 243 687 261 687 c 2
 800 687 l 2
 818 687 837 705 837 723 c 2
 837 776 l 1
 861 776 l 1
 861 330 l 1
 670 309 l 1
EndSplineSet
EndChar
StartChar: G.vert
Encoding: 103 -1 32
Width: 1000
Flags: H
Fore
539 209 m 1
 539 254 l 2
 539 277 513 284 495 284 c 2
 268 284 l 1
 282 309 l 1
 224 356 194 422 194 496 c 4
 194 664 365 761 532 761 c 0
 700 761 864 654 864 504 c 0
 864 432 845 392 798 341 c 1
 858 298 l 1
 858 275 l 1
 640 262 l 1
 640 276 l 1
 742 304 845 392 845 509 c 0
 845 633 658 704 524 704 c 0
 380 704 213 630 213 480 c 0
 213 420 242 372 291 339 c 1
 495 339 l 2
 516 339 539 346 539 372 c 2
 539 403 l 1
 557 403 l 1
 557 209 l 1
 539 209 l 1
EndSplineSet
EndChar
StartChar: H.vert
Encoding: 104 -1 33
Width: 1000
Flags: H
Fore
200 152 m 1
 200 383 l 1
 224 383 l 1
 224 330 l 2
 224 312 244 295 261 295 c 2
 536 295 l 1
 536 612 l 1
 261 612 l 2
 242 612 224 596 224 577 c 2
 224 525 l 1
 200 525 l 1
 200 755 l 1
 224 755 l 1
 224 702 l 2
 224 684 244 667 261 667 c 2
 800 667 l 2
 817 667 837 684 837 702 c 2
 837 755 l 1
 861 755 l 1
 861 525 l 1
 837 525 l 1
 837 577 l 2
 837 596 819 612 800 612 c 2
 557 612 l 1
 557 295 l 1
 800 295 l 2
 817 295 837 312 837 330 c 2
 837 383 l 1
 861 383 l 1
 861 152 l 1
 837 152 l 1
 837 205 l 2
 837 224 819 240 800 240 c 2
 261 240 l 2
 242 240 224 224 224 205 c 2
 224 152 l 1
 200 152 l 1
EndSplineSet
EndChar
StartChar: I.vert
Encoding: 105 -1 34
Width: 1000
Flags: H
Fore
200 525 m 1
 200 755 l 1
 224 755 l 1
 224 702 l 2
 224 684 244 667 261 667 c 2
 800 667 l 2
 817 667 837 684 837 702 c 2
 837 755 l 1
 861 755 l 1
 861 525 l 1
 837 525 l 1
 837 577 l 2
 837 596 819 612 800 612 c 2
 261 612 l 2
 242 612 224 596 224 577 c 2
 224 525 l 1
 200 525 l 1
EndSplineSet
EndChar
StartChar: J.vert
Encoding: 106 -1 35
Width: 1000
Flags: H
Fore
837 477 m 1
 837 530 l 2
 837 549 819 565 800 565 c 2
 333 565 l 2
 239 565 94 588 94 706 c 0
 94 754 116 787 164 787 c 0
 188 787 213 769 213 744 c 0
 213 717 188 701 170 701 c 0
 141 701 126 714 120 737 c 1
 114 730 111 712 111 695 c 0
 111 650 211 620 271 620 c 2
 800 620 l 2
 817 620 837 637 837 655 c 2
 837 708 l 1
 861 708 l 1
 861 477 l 1
 837 477 l 1
EndSplineSet
EndChar
StartChar: K.vert
Encoding: 107 -1 36
Width: 1000
Flags: H
Fore
200 181 m 1
 200 376 l 1
 225 376 l 1
 225 346 l 6
 225 321 252 332 265 340 c 5
 560 538 l 1
 480 618 l 1
 261 618 l 2
 243 618 224 603 224 584 c 2
 224 531 l 1
 200 531 l 1
 200 761 l 1
 224 761 l 1
 224 709 l 2
 224 690 243 673 261 673 c 2
 800 673 l 2
 818 673 837 690 837 709 c 2
 837 761 l 1
 861 761 l 1
 861 531 l 1
 837 531 l 1
 837 584 l 2
 837 603 818 618 800 618 c 2
 508 618 l 1
 714 422 l 6
 748 390 836 334 836 427 c 6
 836 446 l 1
 861 446 l 1
 861 204 l 1
 836 204 l 1
 810 324 689 417 602 497 c 1
 263 270 l 2
 251 262 225 234 225 218 c 2
 225 181 l 1
 200 181 l 1
EndSplineSet
EndChar
StartChar: L.vert
Encoding: 108 -1 37
Width: 1000
Flags: H
Fore
379 267 m 1
 200 317 l 1
 200 772 l 1
 224 772 l 1
 224 719 l 2
 224 691 253 683 276 683 c 2
 800 683 l 2
 818 683 837 701 837 719 c 2
 837 772 l 1
 861 772 l 1
 861 541 l 1
 837 541 l 1
 837 594 l 2
 837 613 818 628 800 628 c 2
 273 628 l 2
 250 628 223 616 223 590 c 2
 223 470 l 2
 223 384 299 305 379 282 c 1
 379 267 l 1
EndSplineSet
EndChar
StartChar: M.vert
Encoding: 109 -1 38
Width: 1000
Flags: H
Fore
200 -14 m 1
 200 217 l 1
 224 217 l 1
 224 164 l 2
 224 146 243 128 261 128 c 2
 807 128 l 1
 200 359 l 1
 200 388 l 1
 794 622 l 1
 317 622 l 2
 281 622 225 601 225 557 c 2
 225 520 l 1
 200 520 l 1
 200 755 l 1
 225 755 l 1
 225 706 l 2
 225 663 282 642 317 642 c 2
 800 642 l 2
 817 642 837 659 837 677 c 2
 837 730 l 1
 861 730 l 1
 861 585 l 1
 262 349 l 1
 861 120 l 1
 861 -14 l 1
 837 -14 l 1
 837 39 l 2
 837 58 818 73 800 73 c 2
 261 73 l 2
 243 73 224 58 224 39 c 2
 224 -14 l 1
 200 -14 l 1
EndSplineSet
EndChar
StartChar: N.vert
Encoding: 110 -1 39
Width: 1000
Flags: H
Fore
836 87 m 1
 836 135 l 2
 836 180 781 200 744 200 c 2
 200 200 l 1
 200 236 l 1
 798 624 l 1
 317 624 l 2
 282 624 225 602 225 559 c 2
 225 521 l 1
 200 521 l 1
 200 757 l 1
 225 757 l 1
 225 708 l 2
 225 665 282 643 317 643 c 2
 800 643 l 2
 818 643 837 661 837 679 c 2
 837 731 l 1
 861 731 l 1
 861 603 l 1
 280 220 l 1
 744 220 l 2
 781 220 836 238 836 284 c 2
 836 322 l 1
 861 322 l 1
 861 87 l 1
 836 87 l 1
EndSplineSet
EndChar
StartChar: O.vert
Encoding: 111 -1 40
Width: 1000
Flags: H
Fore
179 441 m 0
 179 644 362 743 529 743 c 0
 701 743 871 641 871 442 c 0
 871 242 702 140 531 140 c 0
 356 140 179 236 179 441 c 0
200 442 m 0
 200 282 364 203 527 203 c 0
 684 203 850 282 850 441 c 0
 850 600 688 680 525 680 c 0
 363 680 200 601 200 442 c 0
EndSplineSet
EndChar
StartChar: P.vert
Encoding: 112 -1 41
Width: 1000
Flags: H
Fore
724 356 m 8
 634 356 567 430 567 519 c 2
 567 627 l 1
 261 627 l 2
 242 627 224 611 224 592 c 2
 224 540 l 1
 200 540 l 1
 200 770 l 1
 224 770 l 1
 224 717 l 2
 224 699 244 682 261 682 c 2
 806 682 l 2
 824 682 844 698 844 717 c 2
 844 770 l 1
 861 770 l 1
 861 504 l 2
 861 425 800 356 724 356 c 8
838 527 m 2
 838 627 l 1
 585 627 l 1
 585 528 l 2
 585 448 653 407 727 407 c 16
 790 407 838 463 838 527 c 2
EndSplineSet
EndChar
StartChar: Q.vert
Encoding: 113 -1 42
Width: 1000
Flags: H
Fore
227 232 m 1
 163 232 108 273 108 340 c 0
 108 426 192 492 192 556 c 0
 192 579 184 600 165 608 c 1
 218 562 98 518 98 602 c 0
 98 623 120 639 139 639 c 0
 174 639 196 612 206 580 c 1
 258 692 390 748 523 748 c 0
 694 748 866 650 866 451 c 0
 866 247 692 146 517 146 c 0
 364 146 214 228 185 388 c 1
 178 365 173 341 173 313 c 0
 173 282 192 240 227 240 c 1
 227 232 l 1
202 435 m 1
 212 289 364 214 518 214 c 0
 680 214 845 292 845 451 c 0
 845 609 680 685 519 685 c 0
 390 685 262 633 217 532 c 1
 223 501 211 464 202 435 c 1
EndSplineSet
EndChar
StartChar: R.vert
Encoding: 114 -1 43
Width: 1000
Flags: H
Fore
200 199 m 1
 200 263 l 2
 200 306 222 328 257 348 c 2
 567 524 l 1
 567 631 l 1
 261 631 l 2
 242 631 224 615 224 596 c 2
 224 544 l 1
 200 544 l 1
 200 774 l 1
 224 774 l 1
 224 721 l 2
 224 703 244 686 261 686 c 2
 799 686 l 2
 817 686 837 702 837 721 c 2
 837 774 l 1
 861 774 l 1
 861 481 l 2
 861 401 806 333 722 333 c 8
 641 333 578 392 569 466 c 1
 272 293 l 2
 252 281 216 239 216 212 c 2
 216 199 l 1
 200 199 l 1
831 516 m 2
 831 631 l 1
 592 631 l 1
 592 517 l 2
 592 437 655 395 728 395 c 16
 792 395 831 452 831 516 c 2
EndSplineSet
EndChar
StartChar: S.vert
Encoding: 115 -1 44
Width: 1000
Flags: H
Fore
374 334 m 0
 297 334 190 391 190 537 c 0
 190 619 240 640 240 680 c 0
 240 695 207 721 198 728 c 1
 198 739 l 1
 415 750 l 1
 415 736 l 1
 323 711 212 646 212 539 c 0
 212 467 251 385 331 385 c 0
 560 385 489 765 690 765 c 0
 792 765 874 674 874 569 c 0
 874 461 827 472 827 427 c 0
 827 413 858 387 870 379 c 1
 870 368 l 1
 652 356 l 1
 652 370 l 1
 744 394 857 460 857 567 c 0
 857 639 798 706 725 706 c 0
 542 706 582 334 374 334 c 0
EndSplineSet
EndChar
StartChar: T.vert
Encoding: 116 -1 45
Width: 1000
Flags: H
Fore
690 90 m 1
 689 110 l 1
 771 131 830 208 830 289 c 2
 830 369 l 2
 830 394 801 406 780 406 c 2
 261 406 l 2
 242 406 224 390 224 371 c 2
 224 318 l 1
 200 318 l 1
 200 549 l 1
 224 549 l 1
 224 496 l 2
 224 478 244 461 261 461 c 2
 780 461 l 2
 803 461 830 472 830 498 c 2
 830 539 l 2
 830 629 785 712 689 731 c 1
 690 753 l 1
 861 695 l 1
 861 147 l 1
 690 90 l 1
EndSplineSet
EndChar
StartChar: U.vert
Encoding: 117 -1 46
Width: 1000
Flags: H
Fore
837 162 m 1
 837 215 l 2
 837 234 819 250 800 250 c 2
 420 250 l 2
 304 250 188 322 188 438 c 0
 188 584 220 672 381 672 c 2
 800 672 l 2
 817 672 837 689 837 707 c 2
 837 760 l 1
 861 760 l 1
 861 529 l 1
 837 529 l 1
 837 582 l 2
 837 601 819 617 800 617 c 2
 332 617 l 2
 254 617 207 524 207 441 c 0
 207 343 307 274 409 274 c 2
 800 274 l 2
 818 274 837 291 837 310 c 2
 837 362 l 1
 861 362 l 1
 861 162 l 1
 837 162 l 1
EndSplineSet
EndChar
StartChar: V.vert
Encoding: 118 -1 47
Width: 1000
Flags: H
Fore
836 134 m 1
 836 146 l 2
 836 199 759 253 714 269 c 2
 200 455 l 1
 200 479 l 1
 789 691 l 2
 815 700 836 717 836 746 c 2
 836 759 l 1
 861 759 l 1
 861 572 l 1
 836 572 l 1
 836 617 l 6
 836 646 805 639 787 633 c 5
 273 448 l 1
 706 290 l 6
 763 269 836 239 836 328 c 6
 836 353 l 1
 861 353 l 1
 861 134 l 1
 836 134 l 1
EndSplineSet
EndChar
StartChar: W.vert
Encoding: 119 -1 48
Width: 1000
Flags: H
Fore
836 -189 m 1
 836 -170 l 2
 836 -109 770 -74 719 -55 c 2
 200 135 l 1
 200 158 l 1
 619 310 l 5
 200 455 l 1
 200 479 l 1
 789 691 l 2
 815 700 836 717 836 746 c 2
 836 759 l 1
 861 759 l 1
 861 568 l 1
 836 568 l 1
 836 613 l 2
 836 642 805 635 787 629 c 1
 279 447 l 1
 645 318 l 1
 789 370 l 2
 815 379 836 398 836 426 c 2
 836 439 l 1
 861 439 l 1
 861 251 l 1
 836 251 l 1
 836 289 l 2
 836 317 808 320 787 312 c 2
 282 125 l 1
 706 -30 l 2
 745 -44 836 -57 836 8 c 2
 836 33 l 1
 861 33 l 1
 861 -189 l 1
 836 -189 l 1
EndSplineSet
EndChar
StartChar: X.vert
Encoding: 120 -1 49
Width: 1000
Flags: H
Fore
836 181 m 1
 836 202 l 2
 836 262 774 312 728 340 c 2
 554 447 l 1
 554 446 272 272 272 272 c 2
 261 265 228 231 228 216 c 2
 228 181 l 1
 200 181 l 1
 200 389 l 1
 228 389 l 1
 228 344 l 6
 228 321 265 325 278 333 c 6
 509 474 l 1
 351 571 l 6
 332 583 228 641 228 576 c 6
 228 539 l 1
 200 539 l 1
 200 770 l 1
 228 770 l 1
 228 754 l 2
 228 694 289 637 336 609 c 2
 534 489 l 1
 791 645 l 2
 808 655 836 676 836 699 c 2
 836 726 l 1
 861 726 l 1
 861 539 l 1
 836 539 l 1
 836 584 l 6
 836 615 802 600 787 591 c 6
 578 461 l 1
 707 384 l 6
 726 373 836 309 836 375 c 6
 836 400 l 1
 861 400 l 1
 861 181 l 1
 836 181 l 1
EndSplineSet
EndChar
StartChar: Y.vert
Encoding: 121 -1 50
Width: 1000
Flags: H
Fore
836 179 m 1
 836 214 l 2
 836 254 757 317 728 338 c 2
 539 473 l 1
 261 473 l 2
 243 473 224 458 224 439 c 2
 224 386 l 1
 200 386 l 1
 200 617 l 1
 224 617 l 1
 224 564 l 2
 224 546 243 528 261 528 c 2
 534 528 l 1
 791 677 l 2
 813 690 836 717 836 744 c 2
 836 752 l 1
 861 752 l 1
 861 562 l 1
 836 562 l 1
 836 591 l 6
 836 627 818 634 787 616 c 6
 557 484 l 1
 707 381 l 6
 732 364 836 295 836 373 c 6
 836 399 l 1
 861 399 l 1
 861 179 l 1
 836 179 l 1
EndSplineSet
EndChar
StartChar: Z.vert
Encoding: 122 -1 51
Width: 1000
Flags: H
Fore
406 262 m 1
 200 321 l 1
 200 751 l 1
 221 751 l 1
 836 352 l 1
 836 522 l 2
 836 586 779 675 715 693 c 2
 669 706 l 1
 669 729 l 1
 861 684 l 1
 861 279 l 1
 839 279 l 1
 225 670 l 1
 225 486 l 2
 225 412 291 334 357 303 c 2
 404 281 l 1
 406 262 l 1
EndSplineSet
EndChar
